<svg width="479" height="479" viewBox="0 0 479 479" fill="none" xmlns="http://www.w3.org/2000/svg">
<path d="M434.804 195.563C446.379 247.338 436.916 301.591 408.496 346.39C380.076 391.189 335.026 422.866 283.253 434.454C231.481 446.042 177.226 436.593 132.42 408.184C87.6135 379.775 55.9254 334.733 44.3244 282.963C32.7234 231.194 42.1594 176.936 70.5572 132.123C98.955 87.3096 143.989 55.6103 195.756 43.9963C247.522 32.3824 301.782 41.8048 346.603 70.1914C391.423 98.578 423.134 143.604 434.76 195.368" stroke="#FFC67E" stroke-opacity="0.55" stroke-width="4.75" stroke-miterlimit="10"/>
<path d="M242.417 399.245C222.016 399.61 201.733 396.071 182.661 388.818" stroke="#FFC67E" stroke-opacity="0.55" stroke-width="4.75" stroke-miterlimit="10"/>
<path d="M128.419 354.398C105.862 332.634 90.1916 304.725 83.3528 274.135C76.5139 243.545 78.8076 211.62 89.9493 182.322" stroke="#FFC67E" stroke-opacity="0.55" stroke-width="4.75" stroke-miterlimit="10"/>
<path d="M124.369 128.08C146.134 105.523 174.042 89.8526 204.632 83.0137C235.223 76.1748 267.147 78.4685 296.446 89.6102" stroke="#FFC67E" stroke-opacity="0.55" stroke-width="4.75" stroke-miterlimit="10"/>
<path d="M350.687 124.03C365.371 138.198 377.211 155.043 385.568 173.657" stroke="#FFC67E" stroke-opacity="0.55" stroke-width="4.75" stroke-miterlimit="10"/>
<path d="M399.584 236.351C399.95 256.752 396.41 277.035 389.158 296.107" stroke="#FFC67E" stroke-opacity="0.55" stroke-width="4.75" stroke-miterlimit="10"/>
<path d="M354.737 350.348C340.57 365.032 323.725 376.872 305.111 385.229" stroke="#FFC67E" stroke-opacity="0.55" stroke-width="4.75" stroke-miterlimit="10"/>
<path d="M242.417 399.245C244.454 393.105 248.046 387.597 252.844 383.257C257.642 378.918 263.482 375.895 269.795 374.484C276.108 373.073 282.68 373.32 288.869 375.204C295.058 377.087 300.653 380.541 305.111 385.229" stroke="#FFC67E" stroke-opacity="0.55" stroke-width="4.75" stroke-miterlimit="10"/>
<path d="M254.057 396.309C254.195 396.927 254.082 397.575 253.743 398.11C253.403 398.646 252.865 399.024 252.247 399.162C251.629 399.301 250.981 399.188 250.445 398.849C249.91 398.509 249.532 397.971 249.393 397.353C249.255 396.735 249.367 396.086 249.706 395.551C250.046 395.016 250.584 394.637 251.202 394.499C251.82 394.36 252.468 394.472 253.004 394.811C253.539 395.15 253.918 395.688 254.057 396.307" fill="#FFC67E" fill-opacity="0.55"/>
<path d="M273.788 381.393C273.927 382.011 273.813 382.659 273.474 383.195C273.135 383.73 272.596 384.108 271.978 384.246C271.36 384.385 270.712 384.272 270.176 383.933C269.641 383.593 269.263 383.055 269.124 382.437C268.986 381.819 269.098 381.171 269.438 380.635C269.777 380.1 270.315 379.721 270.933 379.583C271.551 379.444 272.199 379.556 272.735 379.896C273.27 380.235 273.649 380.772 273.788 381.391" fill="#FFC67E" fill-opacity="0.55"/>
<path d="M297.993 386.486C298.131 387.105 298.018 387.753 297.679 388.288C297.339 388.823 296.801 389.201 296.183 389.34C295.564 389.478 294.916 389.365 294.381 389.026C293.846 388.687 293.467 388.149 293.329 387.53C293.19 386.912 293.303 386.264 293.642 385.729C293.981 385.193 294.519 384.815 295.138 384.676C295.756 384.537 296.404 384.65 296.939 384.989C297.475 385.328 297.853 385.866 297.992 386.484" fill="#FFC67E" fill-opacity="0.55"/>
<path d="M338.621 368.59C339.037 370.454 338.697 372.407 337.673 374.02C336.65 375.632 335.029 376.773 333.165 377.19C331.301 377.607 329.348 377.267 327.735 376.244C326.122 375.221 324.981 373.6 324.563 371.736C324.146 369.873 324.485 367.919 325.508 366.306C326.53 364.693 328.151 363.552 330.015 363.133C331.878 362.715 333.832 363.055 335.445 364.077C337.059 365.098 338.2 366.719 338.619 368.583" stroke="#FFC67E" stroke-opacity="0.55" stroke-width="4.75" stroke-miterlimit="10"/>
<path d="M354.737 350.348C351.836 344.567 350.481 338.132 350.805 331.671C351.129 325.21 353.121 318.943 356.588 313.48C360.054 308.018 364.876 303.547 370.583 300.502C376.291 297.457 382.69 295.943 389.158 296.106" stroke="#FFC67E" stroke-opacity="0.55" stroke-width="4.75" stroke-miterlimit="10"/>
<path d="M404.257 265.156C404.673 267.019 404.333 268.973 403.31 270.585C402.287 272.198 400.665 273.338 398.801 273.756C396.937 274.173 394.984 273.833 393.371 272.81C391.758 271.787 390.617 270.166 390.199 268.302C389.782 266.438 390.121 264.485 391.144 262.872C392.166 261.258 393.787 260.117 395.651 259.699C397.515 259.281 399.468 259.62 401.081 260.642C402.695 261.664 403.837 263.285 404.255 265.149" stroke="#FFC67E" stroke-opacity="0.55" stroke-width="4.75" stroke-miterlimit="10"/>
<path d="M399.584 236.351C393.444 234.314 387.936 230.722 383.597 225.924C379.257 221.126 376.235 215.286 374.823 208.973C373.412 202.659 373.66 196.088 375.543 189.899C377.426 183.71 380.88 178.114 385.568 173.657" stroke="#FFC67E" stroke-opacity="0.55" stroke-width="4.75" stroke-miterlimit="10"/>
<path d="M350.687 124.03C344.906 126.932 338.471 128.287 332.01 127.963C325.549 127.639 319.282 125.646 313.82 122.18C308.357 118.714 303.886 113.892 300.841 108.184C297.797 102.477 296.282 96.0774 296.446 89.6103" stroke="#FFC67E" stroke-opacity="0.55" stroke-width="4.75" stroke-miterlimit="10"/>
<path d="M274.095 79.9687C274.512 81.8326 274.171 83.7857 273.148 85.3984C272.125 87.0112 270.503 88.1516 268.639 88.5687C266.775 88.9859 264.822 88.6457 263.209 87.623C261.596 86.6003 260.455 84.9788 260.038 83.1151C259.62 81.2514 259.96 79.2981 260.982 77.6848C262.005 76.0715 263.626 74.9304 265.489 74.5123C267.353 74.0942 269.306 74.4334 270.92 75.4553C272.533 76.4772 273.675 78.0981 274.093 79.9616" stroke="#FFC67E" stroke-opacity="0.55" stroke-width="4.75" stroke-miterlimit="10"/>
<path d="M239.519 107.014C241.186 114.469 239.823 122.282 235.731 128.733C231.638 135.184 225.151 139.745 217.696 141.414C210.241 143.083 202.428 141.722 195.976 137.631C189.524 133.54 184.961 127.054 183.29 119.599C181.62 112.144 182.978 104.331 187.068 97.8782C191.157 91.4251 197.642 86.8604 205.096 85.1879C212.551 83.5155 220.364 84.8724 226.818 88.96C233.272 93.0477 237.839 99.5315 239.513 106.985" stroke="#FFC67E" stroke-opacity="0.55" stroke-width="4.75" stroke-miterlimit="10"/>
<path d="M124.369 128.08C127.271 133.862 128.626 140.297 128.302 146.758C127.978 153.219 125.985 159.486 122.519 164.948C119.053 170.41 114.231 174.882 108.523 177.926C102.815 180.971 96.4163 182.486 89.9492 182.322" stroke="#FFC67E" stroke-opacity="0.55" stroke-width="4.75" stroke-miterlimit="10"/>
<path d="M88.9082 210.13C89.3249 211.994 88.9842 213.947 87.9611 215.56C86.938 217.173 85.3162 218.313 83.4524 218.73C81.5886 219.148 79.6354 218.807 78.0223 217.785C76.4093 216.762 75.2686 215.14 74.8509 213.277C74.4333 211.413 74.773 209.46 75.7953 207.846C76.8176 206.233 78.4388 205.092 80.3024 204.674C82.166 204.256 84.1194 204.595 85.7329 205.617C87.3465 206.639 88.488 208.26 88.9066 210.123" stroke="#FFC67E" stroke-opacity="0.55" stroke-width="4.75" stroke-miterlimit="10"/>
<path d="M81.1833 274.62C81.6 276.484 81.2593 278.437 80.2362 280.05C79.2131 281.663 77.5913 282.803 75.7274 283.22C73.8636 283.638 71.9105 283.297 70.2974 282.275C68.6844 281.252 67.5436 279.63 67.126 277.767C66.7084 275.903 67.0481 273.95 68.0704 272.337C69.0927 270.723 70.7139 269.582 72.5775 269.164C74.4411 268.746 76.3945 269.085 78.008 270.107C79.6216 271.129 80.7631 272.75 81.1817 274.613" stroke="#FFC67E" stroke-opacity="0.55" stroke-width="4.75" stroke-miterlimit="10"/>
<path d="M128.419 354.398C134.201 351.497 140.636 350.142 147.097 350.466C153.558 350.79 159.825 352.782 165.287 356.249C170.749 359.715 175.221 364.537 178.265 370.244C181.31 375.952 182.825 382.351 182.661 388.819" stroke="#FFC67E" stroke-opacity="0.55" stroke-width="4.75" stroke-miterlimit="10"/>
<path d="M353.598 319.242L118.58 170.107" stroke="#FFC67E" stroke-opacity="0.55" stroke-width="4.75" stroke-miterlimit="10"/>
<path d="M352.308 322.884L115.833 172.825" stroke="#FFC67E" stroke-opacity="0.55" stroke-width="4.75" stroke-miterlimit="10"/>
<path d="M350.986 337.677L180.659 375.756" stroke="#FFC67E" stroke-opacity="0.55" stroke-width="4.75" stroke-miterlimit="10"/>
<path d="M391.828 261.96L234.213 130.899" stroke="#FFC67E" stroke-opacity="0.55" stroke-width="4.75" stroke-miterlimit="10"/>
<path d="M374.406 206.813L89.0492 212.385" stroke="#FFC67E" stroke-opacity="0.55" stroke-width="4.75" stroke-miterlimit="10"/>
<path d="M378.573 182.722L127.881 138.979" stroke="#FFC67E" stroke-opacity="0.55" stroke-width="4.75" stroke-miterlimit="10"/>
<path d="M381.858 223.856L176.909 367.908" stroke="#FFC67E" stroke-opacity="0.55" stroke-width="4.75" stroke-miterlimit="10"/>
<path d="M157.938 352.644L270.268 41.5151" stroke="#FFC67E" stroke-opacity="0.55" stroke-width="4.75" stroke-miterlimit="10"/>
</svg>
